<svg xmlns="http://www.w3.org/2000/svg" xmlns:xlink="http://www.w3.org/1999/xlink" width="400px" height="400px" onload="showLSystem(sierpinskiArrowhead, 6, 'path', 'view')" id="view" preserveAspectRatio="xMinYMin meet" viewBox="-109.9852262806235 -128 109.98522628062356 128">

<script type="text/ecmascript" xlink:href="l.js"/>

<script type="text/ecmascript"><![CDATA[

sierpinskiArrowhead = {
  axiom: "L",
  directions: 6,
  productions: {
   L: "+R-L-R+",
   R: "-L+R+L-"
  },
  symbols: {
   L: "+F-F-F+",
   R: "-F+F+F-"
  }
  
}

]]>
</script>

  <g stroke="black" stroke-width="0.1" stroke-linecap="round" fill="none">
    <path id="path" d="M0,0 L-0.8660254037844386,-0.5000000000000001 L-0.8660254037844386,-1.5 L0,-2 L0,-3 L-0.8660254037844386,-3.5 L-1.732050807568877,-2.9999999999999996 L-1.7320508075688767,-1.9999999999999996 L-2.598076211353315,-1.4999999999999991 L-3.4641016151377535,-1.9999999999999991 L-3.4641016151377535,-2.999999999999999 L-4.330127018922192,-3.499999999999999 L-5.19615242270663,-2.9999999999999987 L-6.062177826491069,-3.4999999999999987 L-6.062177826491069,-4.499999999999998 L-5.19615242270663,-4.999999999999998 L-4.330127018922192,-4.499999999999998 L-3.4641016151377535,-4.999999999999998 L-3.4641016151377535,-5.999999999999998 L-2.598076211353315,-6.499999999999998 L-1.7320508075688763,-5.999999999999998 L-1.732050807568876,-4.999999999999998 L-0.8660254037844374,-4.499999999999998 L1.2212453270876722e-15,-4.999999999999998 L1.2212453270876722e-15,-5.999999999999998 L-0.8660254037844374,-6.499999999999998 L-0.8660254037844374,-7.499999999999998 L1.2212453270876722e-15,-7.999999999999998 L1.2212453270876722e-15,-8.999999999999998 L-0.8660254037844374,-9.499999999999998 L-1.7320508075688759,-8.999999999999998 L-2.5980762113533142,-9.499999999999998 L-2.5980762113533142,-10.499999999999998 L-1.7320508075688756,-10.999999999999998 L-0.8660254037844369,-10.499999999999998 L1.6653345369377348e-15,-10.999999999999998 L1.6653345369377348e-15,-11.999999999999998 L-0.8660254037844369,-12.499999999999998 L-0.8660254037844369,-13.499999999999998 L1.6653345369377348e-15,-13.999999999999998 L1.6653345369377348e-15,-14.999999999999998 L-0.8660254037844369,-15.499999999999998 L-1.7320508075688754,-14.999999999999998 L-1.7320508075688752,-13.999999999999998 L-2.5980762113533133,-13.499999999999998 L-3.4641016151377517,-13.999999999999998 L-4.33012701892219,-13.499999999999998 L-4.33012701892219,-12.499999999999998 L-3.4641016151377513,-11.999999999999998 L-3.4641016151377513,-10.999999999999998 L-4.330127018922189,-10.499999999999998 L-5.196152422706628,-10.999999999999998 L-5.196152422706628,-11.999999999999998 L-6.062177826491066,-12.499999999999998 L-6.928203230275504,-11.999999999999998 L-6.928203230275504,-10.999999999999998 L-7.794228634059943,-10.499999999999998 L-8.660254037844382,-10.999999999999998 L-9.52627944162882,-10.499999999999998 L-9.52627944162882,-9.499999999999998 L-8.66025403784438,-8.999999999999998 L-7.794228634059942,-9.499999999999998 L-6.928203230275503,-8.999999999999998 L-6.928203230275503,-7.999999999999998 L-7.794228634059942,-7.499999999999998 L-7.794228634059942,-6.499999999999998 L-6.928203230275503,-5.999999999999998 L-6.928203230275503,-4.999999999999998 L-7.794228634059942,-4.499999999999998 L-8.66025403784438,-4.999999999999998 L-8.66025403784438,-5.999999999999998 L-9.52627944162882,-6.499999999999998 L-10.392304845413257,-5.999999999999998 L-11.258330249197696,-6.499999999999998 L-11.258330249197696,-7.499999999999998 L-10.392304845413257,-7.999999999999998 L-10.392304845413257,-8.999999999999998 L-11.258330249197696,-9.499999999999998 L-12.124355652982135,-8.999999999999998 L-12.124355652982135,-7.999999999999998 L-12.990381056766573,-7.499999999999998 L-13.856406460551012,-7.999999999999998 L-13.856406460551012,-8.999999999999998 L-14.722431864335451,-9.499999999999998 L-15.588457268119889,-8.999999999999998 L-16.454482671904326,-9.499999999999998 L-16.454482671904326,-10.499999999999998 L-15.588457268119887,-10.999999999999998 L-14.722431864335448,-10.499999999999998 L-13.856406460551009,-10.999999999999998 L-13.856406460551009,-11.999999999999998 L-14.722431864335448,-12.499999999999998 L-14.722431864335448,-13.499999999999998 L-13.856406460551009,-13.999999999999998 L-13.856406460551009,-14.999999999999998 L-14.722431864335448,-15.499999999999998 L-15.588457268119885,-14.999999999999998 L-15.588457268119885,-13.999999999999998 L-16.454482671904323,-13.499999999999998 L-17.32050807568876,-13.999999999999998 L-18.186533479473198,-13.499999999999998 L-18.186533479473198,-12.499999999999998 L-17.32050807568876,-11.999999999999998 L-17.32050807568876,-10.999999999999998 L-18.186533479473198,-10.499999999999998 L-19.052558883257635,-10.999999999999998 L-19.052558883257635,-11.999999999999998 L-19.918584287042073,-12.499999999999998 L-20.78460969082651,-11.999999999999998 L-21.650635094610948,-12.499999999999998 L-21.650635094610948,-13.499999999999998 L-20.78460969082651,-13.999999999999998 L-20.78460969082651,-14.999999999999998 L-21.650635094610948,-15.499999999999998 L-22.516660498395385,-14.999999999999998 L-22.516660498395385,-13.999999999999998 L-23.382685902179823,-13.499999999999998 L-24.24871130596426,-13.999999999999998 L-24.24871130596426,-14.999999999999998 L-25.114736709748698,-15.499999999999998 L-25.980762113533135,-14.999999999999998 L-26.846787517317573,-15.499999999999998 L-26.846787517317573,-16.5 L-25.980762113533135,-17 L-25.114736709748698,-16.5 L-24.24871130596426,-17 L-24.24871130596426,-18 L-23.382685902179823,-18.5 L-22.516660498395385,-18 L-22.516660498395385,-17 L-21.650635094610948,-16.5 L-20.78460969082651,-17 L-20.78460969082651,-18 L-21.650635094610948,-18.5 L-21.650635094610948,-19.5 L-20.78460969082651,-20 L-19.918584287042073,-19.5 L-19.052558883257635,-20 L-19.052558883257635,-21 L-18.186533479473198,-21.5 L-17.32050807568876,-21 L-17.32050807568876,-20 L-18.186533479473198,-19.5 L-18.186533479473198,-18.5 L-17.32050807568876,-18 L-16.454482671904323,-18.5 L-15.588457268119884,-18 L-15.588457268119884,-17 L-14.722431864335444,-16.5 L-13.856406460551005,-17 L-13.856406460551005,-18 L-14.722431864335444,-18.5 L-14.722431864335444,-19.5 L-13.856406460551005,-20 L-13.856406460551005,-21 L-14.722431864335444,-21.5 L-15.588457268119882,-21 L-16.45448267190432,-21.5 L-16.45448267190432,-22.5 L-15.58845726811988,-23 L-14.72243186433544,-22.5 L-13.856406460551002,-23 L-13.856406460551002,-24 L-12.990381056766562,-24.5 L-12.124355652982123,-24 L-12.124355652982123,-23 L-11.258330249197684,-22.5 L-10.392304845413245,-23 L-10.392304845413245,-24 L-11.258330249197684,-24.5 L-11.258330249197684,-25.5 L-10.392304845413245,-26 L-9.526279441628805,-25.5 L-8.660254037844366,-26 L-8.660254037844366,-27 L-7.794228634059928,-27.5 L-6.928203230275489,-27 L-6.928203230275489,-26 L-7.794228634059928,-25.5 L-7.794228634059928,-24.5 L-6.928203230275489,-24 L-6.928203230275489,-23 L-7.794228634059928,-22.5 L-8.660254037844366,-23 L-9.526279441628805,-22.5 L-9.526279441628805,-21.5 L-8.660254037844366,-21 L-7.794228634059928,-21.5 L-6.928203230275489,-21 L-6.928203230275489,-20 L-6.062177826491051,-19.5 L-5.1961524227066125,-20 L-5.1961524227066125,-21 L-4.330127018922174,-21.5 L-3.4641016151377353,-21 L-3.4641016151377353,-20 L-4.330127018922173,-19.5 L-4.330127018922173,-18.5 L-3.4641016151377344,-18 L-2.5980762113532956,-18.5 L-1.7320508075688568,-18 L-1.7320508075688565,-17 L-0.8660254037844178,-16.5 L2.0761170560490427e-14,-17 L2.0761170560490427e-14,-18 L-0.8660254037844178,-18.5 L-0.8660254037844178,-19.5 L2.0761170560490427e-14,-20 L2.0761170560490427e-14,-21 L-0.8660254037844178,-21.5 L-1.7320508075688563,-21 L-2.5980762113532947,-21.5 L-2.5980762113532947,-22.5 L-1.732050807568856,-23 L-0.8660254037844174,-22.5 L2.120525977034049e-14,-23 L2.120525977034049e-14,-24 L-0.8660254037844174,-24.5 L-0.8660254037844174,-25.5 L2.120525977034049e-14,-26 L2.120525977034049e-14,-27 L-0.8660254037844174,-27.5 L-1.7320508075688559,-27 L-1.7320508075688557,-26 L-2.598076211353294,-25.5 L-3.464101615137732,-26 L-3.464101615137732,-27 L-4.330127018922171,-27.5 L-5.196152422706609,-27 L-6.062177826491047,-27.5 L-6.062177826491047,-28.5 L-5.196152422706609,-29 L-4.330127018922171,-28.5 L-3.464101615137732,-29 L-3.464101615137732,-30 L-2.598076211353294,-30.5 L-1.732050807568855,-30 L-1.7320508075688548,-29 L-0.8660254037844161,-28.5 L2.2537527399890678e-14,-29 L2.2537527399890678e-14,-30 L-0.8660254037844161,-30.5 L-0.8660254037844161,-31.5 L2.2537527399890678e-14,-32 L2.2537527399890678e-14,-33 L-0.8660254037844161,-33.5 L-1.7320508075688545,-33 L-2.598076211353293,-33.5 L-2.598076211353293,-34.5 L-1.7320508075688543,-35 L-0.8660254037844156,-34.5 L2.298161660974074e-14,-35 L2.298161660974074e-14,-36 L-0.8660254037844156,-36.5 L-0.8660254037844156,-37.5 L2.298161660974074e-14,-38 L2.298161660974074e-14,-39 L-0.8660254037844156,-39.5 L-1.732050807568854,-39 L-1.7320508075688539,-38 L-2.598076211353292,-37.5 L-3.4641016151377304,-38 L-4.330127018922169,-37.5 L-4.330127018922169,-36.5 L-3.46410161513773,-36 L-3.46410161513773,-35 L-4.330127018922168,-34.5 L-5.196152422706606,-35 L-5.196152422706606,-36 L-6.062177826491045,-36.5 L-6.928203230275483,-36 L-7.794228634059921,-36.5 L-7.794228634059921,-37.5 L-6.928203230275483,-38 L-6.928203230275483,-39 L-7.794228634059921,-39.5 L-8.66025403784436,-39 L-8.66025403784436,-38 L-9.526279441628798,-37.5 L-10.392304845413237,-38 L-10.392304845413237,-39 L-11.258330249197677,-39.5 L-12.124355652982114,-39 L-12.990381056766553,-39.5 L-12.990381056766553,-40.5 L-12.124355652982114,-41 L-11.258330249197675,-40.5 L-10.392304845413236,-41 L-10.392304845413236,-42 L-9.526279441628796,-42.5 L-8.660254037844357,-42 L-8.660254037844357,-41 L-7.794228634059919,-40.5 L-6.92820323027548,-41 L-6.92820323027548,-42 L-7.794228634059919,-42.5 L-7.794228634059919,-43.5 L-6.92820323027548,-44 L-6.062177826491042,-43.5 L-5.196152422706604,-44 L-5.196152422706604,-45 L-4.330127018922165,-45.5 L-3.4641016151377264,-45 L-3.4641016151377264,-44 L-4.330127018922164,-43.5 L-4.330127018922164,-42.5 L-3.4641016151377255,-42 L-2.5980762113532867,-42.5 L-1.7320508075688479,-42 L-1.7320508075688477,-41 L-0.866025403784409,-40.5 L2.964295475749168e-14,-41 L2.964295475749168e-14,-42 L-0.866025403784409,-42.5 L-0.866025403784409,-43.5 L2.964295475749168e-14,-44 L2.964295475749168e-14,-45 L-0.866025403784409,-45.5 L-1.7320508075688474,-45 L-2.598076211353286,-45.5 L-2.598076211353286,-46.5 L-1.7320508075688472,-47 L-0.8660254037844085,-46.5 L3.008704396734174e-14,-47 L3.008704396734174e-14,-48 L-0.8660254037844085,-48.5 L-0.8660254037844085,-49.5 L3.008704396734174e-14,-50 L3.008704396734174e-14,-51 L-0.8660254037844085,-51.5 L-1.732050807568847,-51 L-1.7320508075688468,-50 L-2.598076211353285,-49.5 L-3.4641016151377233,-50 L-3.4641016151377233,-51 L-4.330127018922162,-51.5 L-5.1961524227066,-51 L-6.062177826491038,-51.5 L-6.062177826491038,-52.5 L-5.1961524227066,-53 L-4.330127018922162,-52.5 L-3.4641016151377233,-53 L-3.4641016151377233,-54 L-2.598076211353285,-54.5 L-1.732050807568846,-54 L-1.7320508075688459,-53 L-0.8660254037844072,-52.5 L3.141931159689193e-14,-53 L3.141931159689193e-14,-54 L-0.8660254037844072,-54.5 L-0.8660254037844072,-55.5 L3.141931159689193e-14,-56 L3.141931159689193e-14,-57 L-0.8660254037844072,-57.5 L-1.7320508075688457,-57 L-2.598076211353284,-57.5 L-2.598076211353284,-58.5 L-1.7320508075688454,-59 L-0.8660254037844067,-58.5 L3.186340080674199e-14,-59 L3.186340080674199e-14,-60 L-0.8660254037844067,-60.5 L-0.8660254037844067,-61.5 L3.186340080674199e-14,-62 L3.186340080674199e-14,-63 L-0.8660254037844067,-63.5 L-1.7320508075688452,-63 L-1.732050807568845,-62 L-2.598076211353283,-61.5 L-3.4641016151377215,-62 L-4.33012701892216,-61.5 L-4.33012701892216,-60.5 L-3.464101615137721,-60 L-3.464101615137721,-59 L-4.330127018922159,-58.5 L-5.196152422706597,-59 L-5.196152422706597,-60 L-6.062177826491036,-60.5 L-6.928203230275474,-60 L-6.928203230275474,-59 L-7.7942286340599125,-58.5 L-8.660254037844352,-59 L-9.526279441628791,-58.5 L-9.526279441628791,-57.5 L-8.660254037844352,-57 L-7.794228634059913,-57.5 L-6.928203230275475,-57 L-6.928203230275475,-56 L-7.794228634059913,-55.5 L-7.794228634059913,-54.5 L-6.928203230275475,-54 L-6.928203230275475,-53 L-7.794228634059913,-52.5 L-8.660254037844352,-53 L-8.660254037844352,-54 L-9.526279441628791,-54.5 L-10.392304845413229,-54 L-11.258330249197668,-54.5 L-11.258330249197668,-55.5 L-10.392304845413229,-56 L-10.392304845413229,-57 L-11.258330249197668,-57.5 L-12.124355652982107,-57 L-12.124355652982107,-56 L-12.990381056766545,-55.5 L-13.856406460550984,-56 L-14.722431864335423,-55.5 L-14.722431864335423,-54.5 L-13.856406460550984,-54 L-13.856406460550984,-53 L-14.722431864335423,-52.5 L-15.588457268119862,-53 L-15.588457268119862,-54 L-16.4544826719043,-54.5 L-17.32050807568874,-54 L-17.32050807568874,-53 L-18.186533479473177,-52.5 L-19.052558883257614,-53 L-19.91858428704205,-52.5 L-19.91858428704205,-51.5 L-19.052558883257614,-51 L-18.186533479473177,-51.5 L-17.32050807568874,-51 L-17.32050807568874,-50 L-16.4544826719043,-49.5 L-15.588457268119862,-50 L-15.588457268119862,-51 L-14.722431864335423,-51.5 L-13.856406460550984,-51 L-13.856406460550984,-50 L-14.722431864335423,-49.5 L-14.722431864335423,-48.5 L-13.856406460550984,-48 L-13.856406460550984,-47 L-14.722431864335423,-46.5 L-15.588457268119862,-47 L-16.4544826719043,-46.5 L-16.4544826719043,-45.5 L-15.588457268119862,-45 L-14.722431864335423,-45.5 L-13.856406460550984,-45 L-13.856406460550984,-44 L-14.722431864335423,-43.5 L-14.722431864335423,-42.5 L-13.856406460550984,-42 L-13.856406460550984,-41 L-14.722431864335423,-40.5 L-15.588457268119862,-41 L-15.588457268119862,-42 L-16.4544826719043,-42.5 L-17.32050807568874,-42 L-18.186533479473177,-42.5 L-18.186533479473177,-43.5 L-17.32050807568874,-44 L-17.32050807568874,-45 L-18.186533479473177,-45.5 L-19.052558883257614,-45 L-19.052558883257614,-44 L-19.91858428704205,-43.5 L-20.78460969082649,-44 L-20.78460969082649,-45 L-21.650635094610927,-45.5 L-22.516660498395364,-45 L-23.3826859021798,-45.5 L-23.3826859021798,-46.5 L-22.516660498395364,-47 L-21.650635094610927,-46.5 L-20.78460969082649,-47 L-20.78460969082649,-48 L-21.650635094610927,-48.5 L-21.650635094610927,-49.5 L-20.78460969082649,-50 L-20.78460969082649,-51 L-21.650635094610927,-51.5 L-22.516660498395364,-51 L-22.516660498395364,-50 L-23.3826859021798,-49.5 L-24.24871130596424,-50 L-25.114736709748676,-49.5 L-25.114736709748676,-48.5 L-24.24871130596424,-48 L-24.24871130596424,-47 L-25.114736709748676,-46.5 L-25.980762113533114,-47 L-25.980762113533114,-48 L-26.84678751731755,-48.5 L-27.71281292110199,-48 L-27.71281292110199,-47 L-28.578838324886426,-46.5 L-29.444863728670864,-47 L-30.3108891324553,-46.5 L-30.3108891324553,-45.5 L-29.444863728670864,-45 L-28.578838324886426,-45.5 L-27.71281292110199,-45 L-27.71281292110199,-44 L-28.578838324886426,-43.5 L-28.578838324886426,-42.5 L-27.71281292110199,-42 L-27.71281292110199,-41 L-28.578838324886426,-40.5 L-29.444863728670864,-41 L-29.444863728670864,-42 L-30.3108891324553,-42.5 L-31.17691453623974,-42 L-32.042939940024176,-42.5 L-32.042939940024176,-43.5 L-31.17691453623974,-44 L-31.17691453623974,-45 L-32.042939940024176,-45.5 L-32.90896534380862,-45 L-32.90896534380862,-44 L-33.77499074759306,-43.5 L-34.6410161513775,-44 L-35.50704155516194,-43.5 L-35.50704155516194,-42.5 L-34.6410161513775,-42 L-34.6410161513775,-41 L-35.50704155516194,-40.5 L-36.37306695894638,-41 L-36.37306695894638,-42 L-37.23909236273082,-42.5 L-38.105117766515264,-42 L-38.105117766515264,-41 L-38.971143170299705,-40.5 L-39.837168574084146,-41 L-40.70319397786859,-40.5 L-40.70319397786859,-39.5 L-39.837168574084146,-39 L-38.971143170299705,-39.5 L-38.105117766515264,-39 L-38.105117766515264,-38 L-37.23909236273082,-37.5 L-36.37306695894638,-38 L-36.37306695894638,-39 L-35.50704155516194,-39.5 L-34.6410161513775,-39 L-34.6410161513775,-38 L-35.50704155516194,-37.5 L-35.50704155516194,-36.5 L-34.6410161513775,-36 L-33.77499074759306,-36.5 L-32.90896534380862,-36 L-32.90896534380862,-35 L-32.042939940024176,-34.5 L-31.17691453623974,-35 L-31.17691453623974,-36 L-32.042939940024176,-36.5 L-32.042939940024176,-37.5 L-31.17691453623974,-38 L-30.3108891324553,-37.5 L-29.444863728670864,-38 L-29.444863728670864,-39 L-28.578838324886426,-39.5 L-27.71281292110199,-39 L-27.71281292110199,-38 L-28.578838324886426,-37.5 L-28.578838324886426,-36.5 L-27.71281292110199,-36 L-27.71281292110199,-35 L-28.578838324886426,-34.5 L-29.444863728670864,-35 L-30.3108891324553,-34.5 L-30.3108891324553,-33.5 L-29.444863728670864,-33 L-28.578838324886426,-33.5 L-27.71281292110199,-33 L-27.71281292110199,-32 L-28.578838324886426,-31.5 L-28.578838324886426,-30.5 L-27.71281292110199,-30 L-27.71281292110199,-29 L-28.578838324886426,-28.5 L-29.444863728670864,-29 L-29.444863728670864,-30 L-30.3108891324553,-30.5 L-31.17691453623974,-30 L-31.17691453623974,-29 L-32.042939940024176,-28.5 L-32.90896534380862,-29 L-33.77499074759306,-28.5 L-33.77499074759306,-27.5 L-32.90896534380862,-27 L-32.042939940024176,-27.5 L-31.17691453623974,-27 L-31.17691453623974,-26 L-30.3108891324553,-25.5 L-29.444863728670864,-26 L-29.444863728670864,-27 L-28.578838324886426,-27.5 L-27.71281292110199,-27 L-27.71281292110199,-26 L-28.578838324886426,-25.5 L-28.578838324886426,-24.5 L-27.71281292110199,-24 L-27.71281292110199,-23 L-28.578838324886426,-22.5 L-29.444863728670864,-23 L-30.3108891324553,-22.5 L-30.3108891324553,-21.5 L-29.444863728670864,-21 L-28.578838324886426,-21.5 L-27.71281292110199,-21 L-27.71281292110199,-20 L-28.578838324886426,-19.5 L-28.578838324886426,-18.5 L-27.71281292110199,-18 L-27.71281292110199,-17 L-28.578838324886426,-16.5 L-29.444863728670864,-17 L-29.444863728670864,-18 L-30.3108891324553,-18.5 L-31.17691453623974,-18 L-32.042939940024176,-18.5 L-32.042939940024176,-19.5 L-31.17691453623974,-20 L-31.17691453623974,-21 L-32.042939940024176,-21.5 L-32.90896534380862,-21 L-32.90896534380862,-20 L-33.77499074759306,-19.5 L-34.6410161513775,-20 L-34.6410161513775,-21 L-35.50704155516194,-21.5 L-36.37306695894638,-21 L-37.23909236273082,-21.5 L-37.23909236273082,-22.5 L-36.37306695894638,-23 L-35.50704155516194,-22.5 L-34.6410161513775,-23 L-34.6410161513775,-24 L-35.50704155516194,-24.5 L-35.50704155516194,-25.5 L-34.6410161513775,-26 L-34.6410161513775,-27 L-35.50704155516194,-27.5 L-36.37306695894638,-27 L-36.37306695894638,-26 L-37.23909236273082,-25.5 L-38.105117766515264,-26 L-38.971143170299705,-25.5 L-38.971143170299705,-24.5 L-38.105117766515264,-24 L-38.105117766515264,-23 L-38.971143170299705,-22.5 L-39.837168574084146,-23 L-39.837168574084146,-24 L-40.70319397786859,-24.5 L-41.56921938165303,-24 L-42.43524478543747,-24.5 L-42.43524478543747,-25.5 L-41.56921938165303,-26 L-41.56921938165303,-27 L-42.43524478543747,-27.5 L-43.30127018922191,-27 L-43.30127018922191,-26 L-44.16729559300635,-25.5 L-45.03332099679079,-26 L-45.03332099679079,-27 L-45.89934640057523,-27.5 L-46.765371804359674,-27 L-47.631397208144115,-27.5 L-47.631397208144115,-28.5 L-46.765371804359674,-29 L-45.89934640057523,-28.5 L-45.03332099679079,-29 L-45.03332099679079,-30 L-44.16729559300635,-30.5 L-43.30127018922191,-30 L-43.30127018922191,-29 L-42.43524478543747,-28.5 L-41.56921938165303,-29 L-41.56921938165303,-30 L-42.43524478543747,-30.5 L-42.43524478543747,-31.5 L-41.56921938165303,-32 L-41.56921938165303,-33 L-42.43524478543747,-33.5 L-43.30127018922191,-33 L-44.16729559300635,-33.5 L-44.16729559300635,-34.5 L-43.30127018922191,-35 L-42.43524478543747,-34.5 L-41.56921938165303,-35 L-41.56921938165303,-36 L-42.43524478543747,-36.5 L-42.43524478543747,-37.5 L-41.56921938165303,-38 L-41.56921938165303,-39 L-42.43524478543747,-39.5 L-43.30127018922191,-39 L-43.30127018922191,-38 L-44.16729559300635,-37.5 L-45.03332099679079,-38 L-45.89934640057523,-37.5 L-45.89934640057523,-36.5 L-45.03332099679079,-36 L-45.03332099679079,-35 L-45.89934640057523,-34.5 L-46.765371804359674,-35 L-46.765371804359674,-36 L-47.631397208144115,-36.5 L-48.497422611928556,-36 L-48.497422611928556,-35 L-49.363448015713,-34.5 L-50.22947341949744,-35 L-51.09549882328188,-34.5 L-51.09549882328188,-33.5 L-50.22947341949744,-33 L-49.363448015713,-33.5 L-48.497422611928556,-33 L-48.497422611928556,-32 L-49.363448015713,-31.5 L-49.363448015713,-30.5 L-48.497422611928556,-30 L-48.497422611928556,-29 L-49.363448015713,-28.5 L-50.22947341949744,-29 L-50.22947341949744,-30 L-51.09549882328188,-30.5 L-51.96152422706632,-30 L-52.82754963085076,-30.5 L-52.82754963085076,-31.5 L-51.96152422706632,-32 L-51.96152422706632,-33 L-52.82754963085076,-33.5 L-53.6935750346352,-33 L-53.6935750346352,-32 L-54.55960043841964,-31.5 L-55.425625842204084,-32 L-55.425625842204084,-33 L-56.291651245988525,-33.5 L-57.15767664977297,-33 L-58.02370205355741,-33.5 L-58.02370205355741,-34.5 L-57.15767664977297,-35 L-56.291651245988525,-34.5 L-55.425625842204084,-35 L-55.425625842204084,-36 L-56.291651245988525,-36.5 L-56.291651245988525,-37.5 L-55.425625842204084,-38 L-55.425625842204084,-39 L-56.291651245988525,-39.5 L-57.15767664977297,-39 L-57.15767664977297,-38 L-58.02370205355741,-37.5 L-58.88972745734185,-38 L-59.75575286112629,-37.5 L-59.75575286112629,-36.5 L-58.88972745734185,-36 L-58.88972745734185,-35 L-59.75575286112629,-34.5 L-60.62177826491073,-35 L-60.62177826491073,-36 L-61.48780366869517,-36.5 L-62.35382907247961,-36 L-63.219854476264054,-36.5 L-63.219854476264054,-37.5 L-62.35382907247961,-38 L-62.35382907247961,-39 L-63.219854476264054,-39.5 L-64.0858798800485,-39 L-64.0858798800485,-38 L-64.95190528383293,-37.5 L-65.81793068761736,-38 L-65.81793068761736,-39 L-66.6839560914018,-39.5 L-67.54998149518623,-39 L-68.41600689897066,-39.5 L-68.41600689897066,-40.5 L-67.54998149518623,-41 L-66.6839560914018,-40.5 L-65.81793068761736,-41 L-65.81793068761736,-42 L-64.95190528383293,-42.5 L-64.0858798800485,-42 L-64.0858798800485,-41 L-63.219854476264054,-40.5 L-62.35382907247961,-41 L-62.35382907247961,-42 L-63.219854476264054,-42.5 L-63.219854476264054,-43.5 L-62.35382907247961,-44 L-61.48780366869517,-43.5 L-60.62177826491073,-44 L-60.62177826491073,-45 L-59.75575286112629,-45.5 L-58.88972745734185,-45 L-58.88972745734185,-44 L-59.75575286112629,-43.5 L-59.75575286112629,-42.5 L-58.88972745734185,-42 L-58.02370205355741,-42.5 L-57.15767664977297,-42 L-57.15767664977297,-41 L-56.291651245988525,-40.5 L-55.425625842204084,-41 L-55.425625842204084,-42 L-56.291651245988525,-42.5 L-56.291651245988525,-43.5 L-55.425625842204084,-44 L-55.425625842204084,-45 L-56.291651245988525,-45.5 L-57.15767664977297,-45 L-58.02370205355741,-45.5 L-58.02370205355741,-46.5 L-57.15767664977297,-47 L-56.291651245988525,-46.5 L-55.425625842204084,-47 L-55.425625842204084,-48 L-56.291651245988525,-48.5 L-56.291651245988525,-49.5 L-55.425625842204084,-50 L-55.425625842204084,-51 L-56.291651245988525,-51.5 L-57.15767664977297,-51 L-57.15767664977297,-50 L-58.02370205355741,-49.5 L-58.88972745734185,-50 L-58.88972745734185,-51 L-59.75575286112629,-51.5 L-60.62177826491073,-51 L-61.48780366869517,-51.5 L-61.48780366869517,-52.5 L-60.62177826491073,-53 L-59.75575286112629,-52.5 L-58.88972745734185,-53 L-58.88972745734185,-54 L-58.02370205355741,-54.5 L-57.15767664977297,-54 L-57.15767664977297,-53 L-56.291651245988525,-52.5 L-55.425625842204084,-53 L-55.425625842204084,-54 L-56.291651245988525,-54.5 L-56.291651245988525,-55.5 L-55.425625842204084,-56 L-55.425625842204084,-57 L-56.291651245988525,-57.5 L-57.15767664977297,-57 L-58.02370205355741,-57.5 L-58.02370205355741,-58.5 L-57.15767664977297,-59 L-56.291651245988525,-58.5 L-55.425625842204084,-59 L-55.425625842204084,-60 L-56.291651245988525,-60.5 L-56.291651245988525,-61.5 L-55.425625842204084,-62 L-55.425625842204084,-63 L-56.291651245988525,-63.5 L-57.15767664977297,-63 L-57.15767664977297,-62 L-58.02370205355741,-61.5 L-58.88972745734185,-62 L-59.75575286112629,-61.5 L-59.75575286112629,-60.5 L-58.88972745734185,-60 L-58.88972745734185,-59 L-59.75575286112629,-58.5 L-60.62177826491073,-59 L-60.62177826491073,-60 L-61.48780366869517,-60.5 L-62.35382907247961,-60 L-62.35382907247961,-59 L-63.219854476264054,-58.5 L-64.0858798800485,-59 L-64.95190528383293,-58.5 L-64.95190528383293,-57.5 L-64.0858798800485,-57 L-63.219854476264054,-57.5 L-62.35382907247961,-57 L-62.35382907247961,-56 L-63.219854476264054,-55.5 L-63.219854476264054,-54.5 L-62.35382907247961,-54 L-62.35382907247961,-53 L-63.219854476264054,-52.5 L-64.0858798800485,-53 L-64.0858798800485,-54 L-64.95190528383293,-54.5 L-65.81793068761736,-54 L-66.6839560914018,-54.5 L-66.6839560914018,-55.5 L-65.81793068761736,-56 L-65.81793068761736,-57 L-66.6839560914018,-57.5 L-67.54998149518623,-57 L-67.54998149518623,-56 L-68.41600689897066,-55.5 L-69.2820323027551,-56 L-70.14805770653953,-55.5 L-70.14805770653953,-54.5 L-69.2820323027551,-54 L-69.2820323027551,-53 L-70.14805770653953,-52.5 L-71.01408311032397,-53 L-71.01408311032397,-54 L-71.8801085141084,-54.5 L-72.74613391789283,-54 L-72.74613391789283,-53 L-73.61215932167727,-52.5 L-74.4781847254617,-53 L-75.34421012924614,-52.5 L-75.34421012924614,-51.5 L-74.4781847254617,-51 L-73.61215932167727,-51.5 L-72.74613391789283,-51 L-72.74613391789283,-50 L-71.8801085141084,-49.5 L-71.01408311032397,-50 L-71.01408311032397,-51 L-70.14805770653953,-51.5 L-69.2820323027551,-51 L-69.2820323027551,-50 L-70.14805770653953,-49.5 L-70.14805770653953,-48.5 L-69.2820323027551,-48 L-69.2820323027551,-47 L-70.14805770653953,-46.5 L-71.01408311032397,-47 L-71.8801085141084,-46.5 L-71.8801085141084,-45.5 L-71.01408311032397,-45 L-70.14805770653953,-45.5 L-69.2820323027551,-45 L-69.2820323027551,-44 L-70.14805770653953,-43.5 L-70.14805770653953,-42.5 L-69.2820323027551,-42 L-69.2820323027551,-41 L-70.14805770653953,-40.5 L-71.01408311032397,-41 L-71.01408311032397,-42 L-71.8801085141084,-42.5 L-72.74613391789283,-42 L-73.61215932167727,-42.5 L-73.61215932167727,-43.5 L-72.74613391789283,-44 L-72.74613391789283,-45 L-73.61215932167727,-45.5 L-74.4781847254617,-45 L-74.4781847254617,-44 L-75.34421012924614,-43.5 L-76.21023553303057,-44 L-76.21023553303057,-45 L-77.076260936815,-45.5 L-77.94228634059944,-45 L-78.80831174438387,-45.5 L-78.80831174438387,-46.5 L-77.94228634059944,-47 L-77.076260936815,-46.5 L-76.21023553303057,-47 L-76.21023553303057,-48 L-77.076260936815,-48.5 L-77.076260936815,-49.5 L-76.21023553303057,-50 L-76.21023553303057,-51 L-77.076260936815,-51.5 L-77.94228634059944,-51 L-77.94228634059944,-50 L-78.80831174438387,-49.5 L-79.6743371481683,-50 L-80.54036255195274,-49.5 L-80.54036255195274,-48.5 L-79.6743371481683,-48 L-79.6743371481683,-47 L-80.54036255195274,-46.5 L-81.40638795573717,-47 L-81.40638795573717,-48 L-82.27241335952161,-48.5 L-83.13843876330604,-48 L-84.00446416709048,-48.5 L-84.00446416709048,-49.5 L-83.13843876330604,-50 L-83.13843876330604,-51 L-84.00446416709048,-51.5 L-84.87048957087491,-51 L-84.87048957087491,-50 L-85.73651497465934,-49.5 L-86.60254037844378,-50 L-86.60254037844378,-51 L-87.46856578222821,-51.5 L-88.33459118601264,-51 L-89.20061658979708,-51.5 L-89.20061658979708,-52.5 L-88.33459118601264,-53 L-87.46856578222821,-52.5 L-86.60254037844378,-53 L-86.60254037844378,-54 L-85.73651497465934,-54.5 L-84.87048957087491,-54 L-84.87048957087491,-53 L-84.00446416709048,-52.5 L-83.13843876330604,-53 L-83.13843876330604,-54 L-84.00446416709048,-54.5 L-84.00446416709048,-55.5 L-83.13843876330604,-56 L-83.13843876330604,-57 L-84.00446416709048,-57.5 L-84.87048957087491,-57 L-85.73651497465934,-57.5 L-85.73651497465934,-58.5 L-84.87048957087491,-59 L-84.00446416709048,-58.5 L-83.13843876330604,-59 L-83.13843876330604,-60 L-84.00446416709048,-60.5 L-84.00446416709048,-61.5 L-83.13843876330604,-62 L-83.13843876330604,-63 L-84.00446416709048,-63.5 L-84.87048957087491,-63 L-84.87048957087491,-62 L-85.73651497465934,-61.5 L-86.60254037844378,-62 L-87.46856578222821,-61.5 L-87.46856578222821,-60.5 L-86.60254037844378,-60 L-86.60254037844378,-59 L-87.46856578222821,-58.5 L-88.33459118601264,-59 L-88.33459118601264,-60 L-89.20061658979708,-60.5 L-90.06664199358151,-60 L-90.06664199358151,-59 L-90.93266739736595,-58.5 L-91.79869280115038,-59 L-92.66471820493481,-58.5 L-92.66471820493481,-57.5 L-91.79869280115038,-57 L-90.93266739736595,-57.5 L-90.06664199358151,-57 L-90.06664199358151,-56 L-90.93266739736595,-55.5 L-90.93266739736595,-54.5 L-90.06664199358151,-54 L-90.06664199358151,-53 L-90.93266739736595,-52.5 L-91.79869280115038,-53 L-91.79869280115038,-54 L-92.66471820493481,-54.5 L-93.53074360871925,-54 L-94.39676901250368,-54.5 L-94.39676901250368,-55.5 L-93.53074360871925,-56 L-93.53074360871925,-57 L-94.39676901250368,-57.5 L-95.26279441628812,-57 L-95.26279441628812,-56 L-96.12881982007255,-55.5 L-96.99484522385698,-56 L-96.99484522385698,-57 L-97.86087062764142,-57.5 L-98.72689603142585,-57 L-99.59292143521029,-57.5 L-99.59292143521029,-58.5 L-98.72689603142585,-59 L-97.86087062764142,-58.5 L-96.99484522385698,-59 L-96.99484522385698,-60 L-97.86087062764142,-60.5 L-97.86087062764142,-61.5 L-96.99484522385698,-62 L-96.99484522385698,-63 L-97.86087062764142,-63.5 L-98.72689603142585,-63 L-98.72689603142585,-62 L-99.59292143521029,-61.5 L-100.45894683899472,-62 L-101.32497224277915,-61.5 L-101.32497224277915,-60.5 L-100.45894683899472,-60 L-100.45894683899472,-59 L-101.32497224277915,-58.5 L-102.19099764656359,-59 L-102.19099764656359,-60 L-103.05702305034802,-60.5 L-103.92304845413246,-60 L-104.78907385791689,-60.5 L-104.78907385791689,-61.5 L-103.92304845413246,-62 L-103.92304845413246,-63 L-104.78907385791689,-63.5 L-105.65509926170132,-63 L-105.65509926170132,-62 L-106.52112466548576,-61.5 L-107.38715006927019,-62 L-107.38715006927019,-63 L-108.25317547305463,-63.5 L-109.11920087683906,-63 L-109.9852262806235,-63.5 L-109.9852262806235,-64.5 L-109.11920087683906,-65 L-108.25317547305463,-64.5 L-107.38715006927019,-65 L-107.38715006927019,-66 L-106.52112466548576,-66.5 L-105.65509926170132,-66 L-105.65509926170132,-65 L-104.78907385791689,-64.5 L-103.92304845413246,-65 L-103.92304845413246,-66 L-104.78907385791689,-66.5 L-104.78907385791689,-67.5 L-103.92304845413246,-68 L-103.05702305034802,-67.5 L-102.19099764656359,-68 L-102.19099764656359,-69 L-101.32497224277915,-69.5 L-100.45894683899472,-69 L-100.45894683899472,-68 L-101.32497224277915,-67.5 L-101.32497224277915,-66.5 L-100.45894683899472,-66 L-99.59292143521029,-66.5 L-98.72689603142585,-66 L-98.72689603142585,-65 L-97.86087062764142,-64.5 L-96.99484522385698,-65 L-96.99484522385698,-66 L-97.86087062764142,-66.5 L-97.86087062764142,-67.5 L-96.99484522385698,-68 L-96.99484522385698,-69 L-97.86087062764142,-69.5 L-98.72689603142585,-69 L-99.59292143521029,-69.5 L-99.59292143521029,-70.5 L-98.72689603142585,-71 L-97.86087062764142,-70.5 L-96.99484522385698,-71 L-96.99484522385698,-72 L-96.12881982007255,-72.5 L-95.26279441628812,-72 L-95.26279441628812,-71 L-94.39676901250368,-70.5 L-93.53074360871925,-71 L-93.53074360871925,-72 L-94.39676901250368,-72.5 L-94.39676901250368,-73.5 L-93.53074360871925,-74 L-92.66471820493481,-73.5 L-91.79869280115038,-74 L-91.79869280115038,-75 L-90.93266739736595,-75.5 L-90.06664199358151,-75 L-90.06664199358151,-74 L-90.93266739736595,-73.5 L-90.93266739736595,-72.5 L-90.06664199358151,-72 L-90.06664199358151,-71 L-90.93266739736595,-70.5 L-91.79869280115038,-71 L-92.66471820493481,-70.5 L-92.66471820493481,-69.5 L-91.79869280115038,-69 L-90.93266739736595,-69.5 L-90.06664199358151,-69 L-90.06664199358151,-68 L-89.20061658979708,-67.5 L-88.33459118601264,-68 L-88.33459118601264,-69 L-87.46856578222821,-69.5 L-86.60254037844378,-69 L-86.60254037844378,-68 L-87.46856578222821,-67.5 L-87.46856578222821,-66.5 L-86.60254037844378,-66 L-85.73651497465934,-66.5 L-84.87048957087491,-66 L-84.87048957087491,-65 L-84.00446416709048,-64.5 L-83.13843876330604,-65 L-83.13843876330604,-66 L-84.00446416709048,-66.5 L-84.00446416709048,-67.5 L-83.13843876330604,-68 L-83.13843876330604,-69 L-84.00446416709048,-69.5 L-84.87048957087491,-69 L-85.73651497465934,-69.5 L-85.73651497465934,-70.5 L-84.87048957087491,-71 L-84.00446416709048,-70.5 L-83.13843876330604,-71 L-83.13843876330604,-72 L-84.00446416709048,-72.5 L-84.00446416709048,-73.5 L-83.13843876330604,-74 L-83.13843876330604,-75 L-84.00446416709048,-75.5 L-84.87048957087491,-75 L-84.87048957087491,-74 L-85.73651497465934,-73.5 L-86.60254037844378,-74 L-86.60254037844378,-75 L-87.46856578222821,-75.5 L-88.33459118601264,-75 L-89.20061658979708,-75.5 L-89.20061658979708,-76.5 L-88.33459118601264,-77 L-87.46856578222821,-76.5 L-86.60254037844378,-77 L-86.60254037844378,-78 L-85.73651497465934,-78.5 L-84.87048957087491,-78 L-84.87048957087491,-77 L-84.00446416709048,-76.5 L-83.13843876330604,-77 L-83.13843876330604,-78 L-84.00446416709048,-78.5 L-84.00446416709048,-79.5 L-83.13843876330604,-80 L-82.27241335952161,-79.5 L-81.40638795573717,-80 L-81.40638795573717,-81 L-80.54036255195274,-81.5 L-79.6743371481683,-81 L-79.6743371481683,-80 L-80.54036255195274,-79.5 L-80.54036255195274,-78.5 L-79.6743371481683,-78 L-78.80831174438387,-78.5 L-77.94228634059944,-78 L-77.94228634059944,-77 L-77.076260936815,-76.5 L-76.21023553303057,-77 L-76.21023553303057,-78 L-77.076260936815,-78.5 L-77.076260936815,-79.5 L-76.21023553303057,-80 L-76.21023553303057,-81 L-77.076260936815,-81.5 L-77.94228634059944,-81 L-78.80831174438387,-81.5 L-78.80831174438387,-82.5 L-77.94228634059944,-83 L-77.076260936815,-82.5 L-76.21023553303057,-83 L-76.21023553303057,-84 L-75.34421012924614,-84.5 L-74.4781847254617,-84 L-74.4781847254617,-83 L-73.61215932167727,-82.5 L-72.74613391789283,-83 L-72.74613391789283,-84 L-73.61215932167727,-84.5 L-73.61215932167727,-85.5 L-72.74613391789283,-86 L-71.8801085141084,-85.5 L-71.01408311032397,-86 L-71.01408311032397,-87 L-70.14805770653953,-87.5 L-69.2820323027551,-87 L-69.2820323027551,-86 L-70.14805770653953,-85.5 L-70.14805770653953,-84.5 L-69.2820323027551,-84 L-69.2820323027551,-83 L-70.14805770653953,-82.5 L-71.01408311032397,-83 L-71.8801085141084,-82.5 L-71.8801085141084,-81.5 L-71.01408311032397,-81 L-70.14805770653953,-81.5 L-69.2820323027551,-81 L-69.2820323027551,-80 L-70.14805770653953,-79.5 L-70.14805770653953,-78.5 L-69.2820323027551,-78 L-69.2820323027551,-77 L-70.14805770653953,-76.5 L-71.01408311032397,-77 L-71.01408311032397,-78 L-71.8801085141084,-78.5 L-72.74613391789283,-78 L-72.74613391789283,-77 L-73.61215932167727,-76.5 L-74.4781847254617,-77 L-75.34421012924614,-76.5 L-75.34421012924614,-75.5 L-74.4781847254617,-75 L-73.61215932167727,-75.5 L-72.74613391789283,-75 L-72.74613391789283,-74 L-71.8801085141084,-73.5 L-71.01408311032397,-74 L-71.01408311032397,-75 L-70.14805770653953,-75.5 L-69.2820323027551,-75 L-69.2820323027551,-74 L-70.14805770653953,-73.5 L-70.14805770653953,-72.5 L-69.2820323027551,-72 L-68.41600689897066,-72.5 L-67.54998149518623,-72 L-67.54998149518623,-71 L-66.6839560914018,-70.5 L-65.81793068761736,-71 L-65.81793068761736,-72 L-66.6839560914018,-72.5 L-66.6839560914018,-73.5 L-65.81793068761736,-74 L-64.95190528383293,-73.5 L-64.0858798800485,-74 L-64.0858798800485,-75 L-63.219854476264054,-75.5 L-62.35382907247961,-75 L-62.35382907247961,-74 L-63.219854476264054,-73.5 L-63.219854476264054,-72.5 L-62.35382907247961,-72 L-62.35382907247961,-71 L-63.219854476264054,-70.5 L-64.0858798800485,-71 L-64.95190528383293,-70.5 L-64.95190528383293,-69.5 L-64.0858798800485,-69 L-63.219854476264054,-69.5 L-62.35382907247961,-69 L-62.35382907247961,-68 L-61.48780366869517,-67.5 L-60.62177826491073,-68 L-60.62177826491073,-69 L-59.75575286112629,-69.5 L-58.88972745734185,-69 L-58.88972745734185,-68 L-59.75575286112629,-67.5 L-59.75575286112629,-66.5 L-58.88972745734185,-66 L-58.02370205355741,-66.5 L-57.15767664977297,-66 L-57.15767664977297,-65 L-56.291651245988525,-64.5 L-55.425625842204084,-65 L-55.425625842204084,-66 L-56.291651245988525,-66.5 L-56.291651245988525,-67.5 L-55.425625842204084,-68 L-55.425625842204084,-69 L-56.291651245988525,-69.5 L-57.15767664977297,-69 L-58.02370205355741,-69.5 L-58.02370205355741,-70.5 L-57.15767664977297,-71 L-56.291651245988525,-70.5 L-55.425625842204084,-71 L-55.425625842204084,-72 L-56.291651245988525,-72.5 L-56.291651245988525,-73.5 L-55.425625842204084,-74 L-55.425625842204084,-75 L-56.291651245988525,-75.5 L-57.15767664977297,-75 L-57.15767664977297,-74 L-58.02370205355741,-73.5 L-58.88972745734185,-74 L-58.88972745734185,-75 L-59.75575286112629,-75.5 L-60.62177826491073,-75 L-61.48780366869517,-75.5 L-61.48780366869517,-76.5 L-60.62177826491073,-77 L-59.75575286112629,-76.5 L-58.88972745734185,-77 L-58.88972745734185,-78 L-58.02370205355741,-78.5 L-57.15767664977297,-78 L-57.15767664977297,-77 L-56.291651245988525,-76.5 L-55.425625842204084,-77 L-55.425625842204084,-78 L-56.291651245988525,-78.5 L-56.291651245988525,-79.5 L-55.425625842204084,-80 L-55.425625842204084,-81 L-56.291651245988525,-81.5 L-57.15767664977297,-81 L-58.02370205355741,-81.5 L-58.02370205355741,-82.5 L-57.15767664977297,-83 L-56.291651245988525,-82.5 L-55.425625842204084,-83 L-55.425625842204084,-84 L-56.291651245988525,-84.5 L-56.291651245988525,-85.5 L-55.425625842204084,-86 L-55.425625842204084,-87 L-56.291651245988525,-87.5 L-57.15767664977297,-87 L-57.15767664977297,-86 L-58.02370205355741,-85.5 L-58.88972745734185,-86 L-59.75575286112629,-85.5 L-59.75575286112629,-84.5 L-58.88972745734185,-84 L-58.88972745734185,-83 L-59.75575286112629,-82.5 L-60.62177826491073,-83 L-60.62177826491073,-84 L-61.48780366869517,-84.5 L-62.35382907247961,-84 L-63.219854476264054,-84.5 L-63.219854476264054,-85.5 L-62.35382907247961,-86 L-62.35382907247961,-87 L-63.219854476264054,-87.5 L-64.0858798800485,-87 L-64.0858798800485,-86 L-64.95190528383293,-85.5 L-65.81793068761736,-86 L-65.81793068761736,-87 L-66.6839560914018,-87.5 L-67.54998149518623,-87 L-68.41600689897066,-87.5 L-68.41600689897066,-88.5 L-67.54998149518623,-89 L-66.6839560914018,-88.5 L-65.81793068761736,-89 L-65.81793068761736,-90 L-64.95190528383293,-90.5 L-64.0858798800485,-90 L-64.0858798800485,-89 L-63.219854476264054,-88.5 L-62.35382907247961,-89 L-62.35382907247961,-90 L-63.219854476264054,-90.5 L-63.219854476264054,-91.5 L-62.35382907247961,-92 L-61.48780366869517,-91.5 L-60.62177826491073,-92 L-60.62177826491073,-93 L-59.75575286112629,-93.5 L-58.88972745734185,-93 L-58.88972745734185,-92 L-59.75575286112629,-91.5 L-59.75575286112629,-90.5 L-58.88972745734185,-90 L-58.02370205355741,-90.5 L-57.15767664977297,-90 L-57.15767664977297,-89 L-56.291651245988525,-88.5 L-55.425625842204084,-89 L-55.425625842204084,-90 L-56.291651245988525,-90.5 L-56.291651245988525,-91.5 L-55.425625842204084,-92 L-55.425625842204084,-93 L-56.291651245988525,-93.5 L-57.15767664977297,-93 L-58.02370205355741,-93.5 L-58.02370205355741,-94.5 L-57.15767664977297,-95 L-56.291651245988525,-94.5 L-55.425625842204084,-95 L-55.425625842204084,-96 L-54.55960043841964,-96.5 L-53.6935750346352,-96 L-53.6935750346352,-95 L-52.82754963085076,-94.5 L-51.96152422706632,-95 L-51.96152422706632,-96 L-52.82754963085076,-96.5 L-52.82754963085076,-97.5 L-51.96152422706632,-98 L-51.09549882328188,-97.5 L-50.22947341949744,-98 L-50.22947341949744,-99 L-49.363448015713,-99.5 L-48.497422611928556,-99 L-48.497422611928556,-98 L-49.363448015713,-97.5 L-49.363448015713,-96.5 L-48.497422611928556,-96 L-48.497422611928556,-95 L-49.363448015713,-94.5 L-50.22947341949744,-95 L-51.09549882328188,-94.5 L-51.09549882328188,-93.5 L-50.22947341949744,-93 L-49.363448015713,-93.5 L-48.497422611928556,-93 L-48.497422611928556,-92 L-47.631397208144115,-91.5 L-46.765371804359674,-92 L-46.765371804359674,-93 L-45.89934640057523,-93.5 L-45.03332099679079,-93 L-45.03332099679079,-92 L-45.89934640057523,-91.5 L-45.89934640057523,-90.5 L-45.03332099679079,-90 L-44.16729559300635,-90.5 L-43.30127018922191,-90 L-43.30127018922191,-89 L-42.43524478543747,-88.5 L-41.56921938165303,-89 L-41.56921938165303,-90 L-42.43524478543747,-90.5 L-42.43524478543747,-91.5 L-41.56921938165303,-92 L-41.56921938165303,-93 L-42.43524478543747,-93.5 L-43.30127018922191,-93 L-44.16729559300635,-93.5 L-44.16729559300635,-94.5 L-43.30127018922191,-95 L-42.43524478543747,-94.5 L-41.56921938165303,-95 L-41.56921938165303,-96 L-42.43524478543747,-96.5 L-42.43524478543747,-97.5 L-41.56921938165303,-98 L-41.56921938165303,-99 L-42.43524478543747,-99.5 L-43.30127018922191,-99 L-43.30127018922191,-98 L-44.16729559300635,-97.5 L-45.03332099679079,-98 L-45.03332099679079,-99 L-45.89934640057523,-99.5 L-46.765371804359674,-99 L-47.631397208144115,-99.5 L-47.631397208144115,-100.5 L-46.765371804359674,-101 L-45.89934640057523,-100.5 L-45.03332099679079,-101 L-45.03332099679079,-102 L-44.16729559300635,-102.5 L-43.30127018922191,-102 L-43.30127018922191,-101 L-42.43524478543747,-100.5 L-41.56921938165303,-101 L-41.56921938165303,-102 L-42.43524478543747,-102.5 L-42.43524478543747,-103.5 L-41.56921938165303,-104 L-40.70319397786859,-103.5 L-39.837168574084146,-104 L-39.837168574084146,-105 L-38.971143170299705,-105.5 L-38.105117766515264,-105 L-38.105117766515264,-104 L-38.971143170299705,-103.5 L-38.971143170299705,-102.5 L-38.105117766515264,-102 L-37.23909236273082,-102.5 L-36.37306695894638,-102 L-36.37306695894638,-101 L-35.50704155516194,-100.5 L-34.6410161513775,-101 L-34.6410161513775,-102 L-35.50704155516194,-102.5 L-35.50704155516194,-103.5 L-34.6410161513775,-104 L-34.6410161513775,-105 L-35.50704155516194,-105.5 L-36.37306695894638,-105 L-37.23909236273082,-105.5 L-37.23909236273082,-106.5 L-36.37306695894638,-107 L-35.50704155516194,-106.5 L-34.6410161513775,-107 L-34.6410161513775,-108 L-33.77499074759306,-108.5 L-32.90896534380862,-108 L-32.90896534380862,-107 L-32.042939940024176,-106.5 L-31.17691453623974,-107 L-31.17691453623974,-108 L-32.042939940024176,-108.5 L-32.042939940024176,-109.5 L-31.17691453623974,-110 L-30.3108891324553,-109.5 L-29.444863728670864,-110 L-29.444863728670864,-111 L-28.578838324886426,-111.5 L-27.71281292110199,-111 L-27.71281292110199,-110 L-28.578838324886426,-109.5 L-28.578838324886426,-108.5 L-27.71281292110199,-108 L-27.71281292110199,-107 L-28.578838324886426,-106.5 L-29.444863728670864,-107 L-30.3108891324553,-106.5 L-30.3108891324553,-105.5 L-29.444863728670864,-105 L-28.578838324886426,-105.5 L-27.71281292110199,-105 L-27.71281292110199,-104 L-28.578838324886426,-103.5 L-28.578838324886426,-102.5 L-27.71281292110199,-102 L-27.71281292110199,-101 L-28.578838324886426,-100.5 L-29.444863728670864,-101 L-29.444863728670864,-102 L-30.3108891324553,-102.5 L-31.17691453623974,-102 L-31.17691453623974,-101 L-32.042939940024176,-100.5 L-32.90896534380862,-101 L-33.77499074759306,-100.5 L-33.77499074759306,-99.5 L-32.90896534380862,-99 L-32.042939940024176,-99.5 L-31.17691453623974,-99 L-31.17691453623974,-98 L-30.3108891324553,-97.5 L-29.444863728670864,-98 L-29.444863728670864,-99 L-28.578838324886426,-99.5 L-27.71281292110199,-99 L-27.71281292110199,-98 L-28.578838324886426,-97.5 L-28.578838324886426,-96.5 L-27.71281292110199,-96 L-27.71281292110199,-95 L-28.578838324886426,-94.5 L-29.444863728670864,-95 L-30.3108891324553,-94.5 L-30.3108891324553,-93.5 L-29.444863728670864,-93 L-28.578838324886426,-93.5 L-27.71281292110199,-93 L-27.71281292110199,-92 L-28.578838324886426,-91.5 L-28.578838324886426,-90.5 L-27.71281292110199,-90 L-27.71281292110199,-89 L-28.578838324886426,-88.5 L-29.444863728670864,-89 L-29.444863728670864,-90 L-30.3108891324553,-90.5 L-31.17691453623974,-90 L-32.042939940024176,-90.5 L-32.042939940024176,-91.5 L-31.17691453623974,-92 L-31.17691453623974,-93 L-32.042939940024176,-93.5 L-32.90896534380862,-93 L-32.90896534380862,-92 L-33.77499074759306,-91.5 L-34.6410161513775,-92 L-35.50704155516194,-91.5 L-35.50704155516194,-90.5 L-34.6410161513775,-90 L-34.6410161513775,-89 L-35.50704155516194,-88.5 L-36.37306695894638,-89 L-36.37306695894638,-90 L-37.23909236273082,-90.5 L-38.105117766515264,-90 L-38.105117766515264,-89 L-38.971143170299705,-88.5 L-39.837168574084146,-89 L-40.70319397786859,-88.5 L-40.70319397786859,-87.5 L-39.837168574084146,-87 L-38.971143170299705,-87.5 L-38.105117766515264,-87 L-38.105117766515264,-86 L-37.23909236273082,-85.5 L-36.37306695894638,-86 L-36.37306695894638,-87 L-35.50704155516194,-87.5 L-34.6410161513775,-87 L-34.6410161513775,-86 L-35.50704155516194,-85.5 L-35.50704155516194,-84.5 L-34.6410161513775,-84 L-33.77499074759306,-84.5 L-32.90896534380862,-84 L-32.90896534380862,-83 L-32.042939940024176,-82.5 L-31.17691453623974,-83 L-31.17691453623974,-84 L-32.042939940024176,-84.5 L-32.042939940024176,-85.5 L-31.17691453623974,-86 L-30.3108891324553,-85.5 L-29.444863728670864,-86 L-29.444863728670864,-87 L-28.578838324886426,-87.5 L-27.71281292110199,-87 L-27.71281292110199,-86 L-28.578838324886426,-85.5 L-28.578838324886426,-84.5 L-27.71281292110199,-84 L-27.71281292110199,-83 L-28.578838324886426,-82.5 L-29.444863728670864,-83 L-30.3108891324553,-82.5 L-30.3108891324553,-81.5 L-29.444863728670864,-81 L-28.578838324886426,-81.5 L-27.71281292110199,-81 L-27.71281292110199,-80 L-26.84678751731755,-79.5 L-25.980762113533114,-80 L-25.980762113533114,-81 L-25.114736709748676,-81.5 L-24.24871130596424,-81 L-24.24871130596424,-80 L-25.114736709748676,-79.5 L-25.114736709748676,-78.5 L-24.24871130596424,-78 L-23.3826859021798,-78.5 L-22.516660498395364,-78 L-22.516660498395364,-77 L-21.650635094610927,-76.5 L-20.78460969082649,-77 L-20.78460969082649,-78 L-21.650635094610927,-78.5 L-21.650635094610927,-79.5 L-20.78460969082649,-80 L-20.78460969082649,-81 L-21.650635094610927,-81.5 L-22.516660498395364,-81 L-23.3826859021798,-81.5 L-23.3826859021798,-82.5 L-22.516660498395364,-83 L-21.650635094610927,-82.5 L-20.78460969082649,-83 L-20.78460969082649,-84 L-19.91858428704205,-84.5 L-19.052558883257614,-84 L-19.052558883257614,-83 L-18.186533479473177,-82.5 L-17.32050807568874,-83 L-17.32050807568874,-84 L-18.186533479473177,-84.5 L-18.186533479473177,-85.5 L-17.32050807568874,-86 L-16.4544826719043,-85.5 L-15.588457268119862,-86 L-15.588457268119862,-87 L-14.722431864335423,-87.5 L-13.856406460550984,-87 L-13.856406460550984,-86 L-14.722431864335423,-85.5 L-14.722431864335423,-84.5 L-13.856406460550984,-84 L-13.856406460550984,-83 L-14.722431864335423,-82.5 L-15.588457268119862,-83 L-16.4544826719043,-82.5 L-16.4544826719043,-81.5 L-15.588457268119862,-81 L-14.722431864335423,-81.5 L-13.856406460550984,-81 L-13.856406460550984,-80 L-14.722431864335423,-79.5 L-14.722431864335423,-78.5 L-13.856406460550984,-78 L-13.856406460550984,-77 L-14.722431864335423,-76.5 L-15.588457268119862,-77 L-15.588457268119862,-78 L-16.4544826719043,-78.5 L-17.32050807568874,-78 L-17.32050807568874,-77 L-18.186533479473177,-76.5 L-19.052558883257614,-77 L-19.91858428704205,-76.5 L-19.91858428704205,-75.5 L-19.052558883257614,-75 L-18.186533479473177,-75.5 L-17.32050807568874,-75 L-17.32050807568874,-74 L-16.4544826719043,-73.5 L-15.588457268119862,-74 L-15.588457268119862,-75 L-14.722431864335423,-75.5 L-13.856406460550984,-75 L-13.856406460550984,-74 L-14.722431864335423,-73.5 L-14.722431864335423,-72.5 L-13.856406460550984,-72 L-12.990381056766545,-72.5 L-12.124355652982105,-72 L-12.124355652982105,-71 L-11.258330249197666,-70.5 L-10.392304845413227,-71 L-10.392304845413227,-72 L-11.258330249197666,-72.5 L-11.258330249197666,-73.5 L-10.392304845413227,-74 L-9.526279441628787,-73.5 L-8.660254037844348,-74 L-8.660254037844348,-75 L-7.79422863405991,-75.5 L-6.9282032302754715,-75 L-6.9282032302754715,-74 L-7.79422863405991,-73.5 L-7.79422863405991,-72.5 L-6.9282032302754715,-72 L-6.9282032302754715,-71 L-7.79422863405991,-70.5 L-8.660254037844348,-71 L-9.526279441628787,-70.5 L-9.526279441628787,-69.5 L-8.660254037844348,-69 L-7.79422863405991,-69.5 L-6.9282032302754715,-69 L-6.9282032302754715,-68 L-6.062177826491033,-67.5 L-5.196152422706595,-68 L-5.196152422706595,-69 L-4.330127018922156,-69.5 L-3.4641016151377175,-69 L-3.4641016151377175,-68 L-4.3301270189221555,-67.5 L-4.3301270189221555,-66.5 L-3.4641016151377166,-66 L-2.598076211353278,-66.5 L-1.732050807568839,-66 L-1.7320508075688388,-65 L-0.8660254037844001,-64.5 L3.852473895449293e-14,-65 L3.852473895449293e-14,-66 L-0.8660254037844001,-66.5 L-0.8660254037844001,-67.5 L3.852473895449293e-14,-68 L3.852473895449293e-14,-69 L-0.8660254037844001,-69.5 L-1.7320508075688386,-69 L-2.598076211353277,-69.5 L-2.598076211353277,-70.5 L-1.7320508075688383,-71 L-0.8660254037843996,-70.5 L3.8968828164342995e-14,-71 L3.8968828164342995e-14,-72 L-0.8660254037843996,-72.5 L-0.8660254037843996,-73.5 L3.8968828164342995e-14,-74 L3.8968828164342995e-14,-75 L-0.8660254037843996,-75.5 L-1.7320508075688381,-75 L-1.732050807568838,-74 L-2.598076211353276,-73.5 L-3.4641016151377144,-74 L-3.4641016151377144,-75 L-4.330127018922153,-75.5 L-5.196152422706591,-75 L-6.0621778264910295,-75.5 L-6.0621778264910295,-76.5 L-5.196152422706591,-77 L-4.330127018922153,-76.5 L-3.4641016151377144,-77 L-3.4641016151377144,-78 L-2.598076211353276,-78.5 L-1.7320508075688372,-78 L-1.732050807568837,-77 L-0.8660254037843983,-76.5 L4.030109579389318e-14,-77 L4.030109579389318e-14,-78 L-0.8660254037843983,-78.5 L-0.8660254037843983,-79.5 L4.030109579389318e-14,-80 L4.030109579389318e-14,-81 L-0.8660254037843983,-81.5 L-1.7320508075688368,-81 L-2.598076211353275,-81.5 L-2.598076211353275,-82.5 L-1.7320508075688366,-83 L-0.8660254037843979,-82.5 L4.0745185003743245e-14,-83 L4.0745185003743245e-14,-84 L-0.8660254037843979,-84.5 L-0.8660254037843979,-85.5 L4.0745185003743245e-14,-86 L4.0745185003743245e-14,-87 L-0.8660254037843979,-87.5 L-1.7320508075688363,-87 L-1.7320508075688361,-86 L-2.5980762113532743,-85.5 L-3.4641016151377126,-86 L-4.330127018922151,-85.5 L-4.330127018922151,-84.5 L-3.464101615137712,-84 L-3.464101615137712,-83 L-4.33012701892215,-82.5 L-5.1961524227065885,-83 L-5.1961524227065885,-84 L-6.062177826491027,-84.5 L-6.928203230275465,-84 L-7.794228634059904,-84.5 L-7.794228634059904,-85.5 L-6.928203230275465,-86 L-6.928203230275465,-87 L-7.794228634059904,-87.5 L-8.660254037844343,-87 L-8.660254037844343,-86 L-9.52627944162878,-85.5 L-10.39230484541322,-86 L-10.39230484541322,-87 L-11.258330249197659,-87.5 L-12.124355652982096,-87 L-12.990381056766536,-87.5 L-12.990381056766536,-88.5 L-12.124355652982096,-89 L-11.258330249197657,-88.5 L-10.392304845413218,-89 L-10.392304845413218,-90 L-9.526279441628779,-90.5 L-8.66025403784434,-90 L-8.66025403784434,-89 L-7.794228634059901,-88.5 L-6.928203230275463,-89 L-6.928203230275463,-90 L-7.794228634059901,-90.5 L-7.794228634059901,-91.5 L-6.928203230275463,-92 L-6.062177826491024,-91.5 L-5.196152422706586,-92 L-5.196152422706586,-93 L-4.3301270189221475,-93.5 L-3.4641016151377086,-93 L-3.4641016151377086,-92 L-4.330127018922147,-91.5 L-4.330127018922147,-90.5 L-3.4641016151377078,-90 L-2.598076211353269,-90.5 L-1.7320508075688301,-90 L-1.73205080756883,-89 L-0.8660254037843912,-88.5 L4.7406523151494184e-14,-89 L4.7406523151494184e-14,-90 L-0.8660254037843912,-90.5 L-0.8660254037843912,-91.5 L4.7406523151494184e-14,-92 L4.7406523151494184e-14,-93 L-0.8660254037843912,-93.5 L-1.7320508075688297,-93 L-2.598076211353268,-93.5 L-2.598076211353268,-94.5 L-1.7320508075688295,-95 L-0.8660254037843907,-94.5 L4.785061236134425e-14,-95 L4.785061236134425e-14,-96 L-0.8660254037843907,-96.5 L-0.8660254037843907,-97.5 L4.785061236134425e-14,-98 L4.785061236134425e-14,-99 L-0.8660254037843907,-99.5 L-1.7320508075688292,-99 L-1.732050807568829,-98 L-2.598076211353267,-97.5 L-3.4641016151377055,-98 L-3.4641016151377055,-99 L-4.330127018922144,-99.5 L-5.196152422706582,-99 L-6.062177826491021,-99.5 L-6.062177826491021,-100.5 L-5.196152422706582,-101 L-4.330127018922144,-100.5 L-3.4641016151377055,-101 L-3.4641016151377055,-102 L-2.598076211353267,-102.5 L-1.7320508075688283,-102 L-1.7320508075688281,-101 L-0.8660254037843894,-100.5 L4.9182879990894435e-14,-101 L4.9182879990894435e-14,-102 L-0.8660254037843894,-102.5 L-0.8660254037843894,-103.5 L4.9182879990894435e-14,-104 L4.9182879990894435e-14,-105 L-0.8660254037843894,-105.5 L-1.732050807568828,-105 L-2.5980762113532663,-105.5 L-2.5980762113532663,-106.5 L-1.7320508075688277,-107 L-0.866025403784389,-106.5 L4.96269692007445e-14,-107 L4.96269692007445e-14,-108 L-0.866025403784389,-108.5 L-0.866025403784389,-109.5 L4.96269692007445e-14,-110 L4.96269692007445e-14,-111 L-0.866025403784389,-111.5 L-1.7320508075688275,-111 L-1.7320508075688272,-110 L-2.5980762113532654,-109.5 L-3.4641016151377038,-110 L-4.330127018922142,-109.5 L-4.330127018922142,-108.5 L-3.4641016151377033,-108 L-3.4641016151377033,-107 L-4.330127018922141,-106.5 L-5.19615242270658,-107 L-5.19615242270658,-108 L-6.062177826491018,-108.5 L-6.928203230275456,-108 L-6.928203230275456,-107 L-7.794228634059895,-106.5 L-8.660254037844334,-107 L-9.526279441628773,-106.5 L-9.526279441628773,-105.5 L-8.660254037844334,-105 L-7.794228634059896,-105.5 L-6.928203230275457,-105 L-6.928203230275457,-104 L-7.794228634059896,-103.5 L-7.794228634059896,-102.5 L-6.928203230275457,-102 L-6.928203230275457,-101 L-7.794228634059896,-100.5 L-8.660254037844334,-101 L-8.660254037844334,-102 L-9.526279441628773,-102.5 L-10.39230484541321,-102 L-11.25833024919765,-102.5 L-11.25833024919765,-103.5 L-10.39230484541321,-104 L-10.39230484541321,-105 L-11.25833024919765,-105.5 L-12.12435565298209,-105 L-12.12435565298209,-104 L-12.990381056766527,-103.5 L-13.856406460550966,-104 L-13.856406460550966,-105 L-14.722431864335405,-105.5 L-15.588457268119843,-105 L-16.45448267190428,-105.5 L-16.45448267190428,-106.5 L-15.588457268119841,-107 L-14.722431864335402,-106.5 L-13.856406460550962,-107 L-13.856406460550962,-108 L-14.722431864335402,-108.5 L-14.722431864335402,-109.5 L-13.856406460550962,-110 L-13.856406460550962,-111 L-14.722431864335402,-111.5 L-15.58845726811984,-111 L-15.58845726811984,-110 L-16.454482671904277,-109.5 L-17.320508075688714,-110 L-18.18653347947315,-109.5 L-18.18653347947315,-108.5 L-17.320508075688714,-108 L-17.320508075688714,-107 L-18.18653347947315,-106.5 L-19.05255888325759,-107 L-19.05255888325759,-108 L-19.918584287042027,-108.5 L-20.784609690826464,-108 L-21.6506350946109,-108.5 L-21.6506350946109,-109.5 L-20.784609690826464,-110 L-20.784609690826464,-111 L-21.6506350946109,-111.5 L-22.51666049839534,-111 L-22.51666049839534,-110 L-23.382685902179777,-109.5 L-24.248711305964214,-110 L-24.248711305964214,-111 L-25.11473670974865,-111.5 L-25.98076211353309,-111 L-26.846787517317527,-111.5 L-26.846787517317527,-112.5 L-25.98076211353309,-113 L-25.11473670974865,-112.5 L-24.248711305964214,-113 L-24.248711305964214,-114 L-23.382685902179777,-114.5 L-22.51666049839534,-114 L-22.51666049839534,-113 L-21.6506350946109,-112.5 L-20.784609690826464,-113 L-20.784609690826464,-114 L-21.6506350946109,-114.5 L-21.6506350946109,-115.5 L-20.784609690826464,-116 L-19.918584287042027,-115.5 L-19.05255888325759,-116 L-19.05255888325759,-117 L-18.18653347947315,-117.5 L-17.320508075688714,-117 L-17.320508075688714,-116 L-18.18653347947315,-115.5 L-18.18653347947315,-114.5 L-17.320508075688714,-114 L-16.454482671904277,-114.5 L-15.588457268119837,-114 L-15.588457268119837,-113 L-14.722431864335398,-112.5 L-13.856406460550959,-113 L-13.856406460550959,-114 L-14.722431864335398,-114.5 L-14.722431864335398,-115.5 L-13.856406460550959,-116 L-13.856406460550959,-117 L-14.722431864335398,-117.5 L-15.588457268119836,-117 L-16.454482671904273,-117.5 L-16.454482671904273,-118.5 L-15.588457268119834,-119 L-14.722431864335395,-118.5 L-13.856406460550955,-119 L-13.856406460550955,-120 L-12.990381056766516,-120.5 L-12.124355652982077,-120 L-12.124355652982077,-119 L-11.258330249197638,-118.5 L-10.392304845413198,-119 L-10.392304845413198,-120 L-11.258330249197638,-120.5 L-11.258330249197638,-121.5 L-10.392304845413198,-122 L-9.526279441628759,-121.5 L-8.66025403784432,-122 L-8.66025403784432,-123 L-7.794228634059881,-123.5 L-6.928203230275443,-123 L-6.928203230275443,-122 L-7.794228634059881,-121.5 L-7.794228634059881,-120.5 L-6.928203230275443,-120 L-6.928203230275443,-119 L-7.794228634059881,-118.5 L-8.66025403784432,-119 L-9.526279441628759,-118.5 L-9.526279441628759,-117.5 L-8.66025403784432,-117 L-7.794228634059881,-117.5 L-6.928203230275443,-117 L-6.928203230275443,-116 L-6.062177826491005,-115.5 L-5.196152422706566,-116 L-5.196152422706566,-117 L-4.330127018922128,-117.5 L-3.464101615137689,-117 L-3.464101615137689,-116 L-4.330127018922127,-115.5 L-4.330127018922127,-114.5 L-3.464101615137688,-114 L-2.5980762113532494,-114.5 L-1.7320508075688106,-114 L-1.7320508075688104,-113 L-0.8660254037843717,-112.5 L6.694644838489694e-14,-113 L6.694644838489694e-14,-114 L-0.8660254037843717,-114.5 L-0.8660254037843717,-115.5 L6.694644838489694e-14,-116 L6.694644838489694e-14,-117 L-0.8660254037843717,-117.5 L-1.7320508075688101,-117 L-2.5980762113532485,-117.5 L-2.5980762113532485,-118.5 L-1.73205080756881,-119 L-0.8660254037843712,-118.5 L6.7390537594747e-14,-119 L6.7390537594747e-14,-120 L-0.8660254037843712,-120.5 L-0.8660254037843712,-121.5 L6.7390537594747e-14,-122 L6.7390537594747e-14,-123 L-0.8660254037843712,-123.5 L-1.7320508075688097,-123 L-1.7320508075688095,-122 L-2.5980762113532476,-121.5 L-3.464101615137686,-122 L-3.464101615137686,-123 L-4.330127018922124,-123.5 L-5.196152422706563,-123 L-6.062177826491001,-123.5 L-6.062177826491001,-124.5 L-5.196152422706563,-125 L-4.330127018922124,-124.5 L-3.464101615137686,-125 L-3.464101615137686,-126 L-2.5980762113532476,-126.5 L-1.7320508075688088,-126 L-1.7320508075688086,-125 L-0.8660254037843699,-124.5 L6.872280522429719e-14,-125 L6.872280522429719e-14,-126 L-0.8660254037843699,-126.5 L-0.8660254037843699,-127.5 L6.872280522429719e-14,-128"/>
  </g>

</svg>